<svg width="260" height="170" viewBox="0 0 260 170" fill="none" xmlns="http://www.w3.org/2000/svg">
<rect x="45" y="84.8528" width="120" height="120" transform="rotate(-45 45 84.8528)" fill="white"/>
<mask id="path-2-outside-1_14_68" maskUnits="userSpaceOnUse" x="-2" y="61" width="250" height="57" fill="black">
<rect fill="white" x="-2" y="61" width="250" height="57"/>
<path d="M2.64205 103V68.0909H17.1989C19.8125 68.0909 22 68.4602 23.7614 69.1989C25.5341 69.9375 26.8636 70.9716 27.75 72.3011C28.6477 73.6307 29.0966 75.1705 29.0966 76.9205C29.0966 78.25 28.8182 79.4375 28.2614 80.483C27.7045 81.517 26.9375 82.375 25.9602 83.0568C24.983 83.7386 23.8523 84.2159 22.5682 84.4886V84.8295C23.9773 84.8977 25.2784 85.2784 26.4716 85.9716C27.6761 86.6648 28.642 87.6307 29.3693 88.8693C30.0966 90.0966 30.4602 91.5511 30.4602 93.233C30.4602 95.108 29.983 96.7841 29.0284 98.2614C28.0739 99.7273 26.6932 100.886 24.8864 101.739C23.0795 102.58 20.8864 103 18.3068 103H2.64205ZM11.0795 96.1989H16.2955C18.125 96.1989 19.4716 95.8523 20.3352 95.1591C21.2102 94.4659 21.6477 93.5 21.6477 92.2614C21.6477 91.3636 21.4375 90.5909 21.017 89.9432C20.5966 89.2841 20 88.7784 19.2273 88.4261C18.4545 88.0625 17.5284 87.8807 16.4489 87.8807H11.0795V96.1989ZM11.0795 82.4432H15.75C16.6705 82.4432 17.4886 82.2898 18.2045 81.983C18.9205 81.6761 19.4773 81.233 19.875 80.6534C20.2841 80.0739 20.4886 79.375 20.4886 78.5568C20.4886 77.3864 20.0739 76.4659 19.2443 75.7955C18.4148 75.125 17.2955 74.7898 15.8864 74.7898H11.0795V82.4432ZM34.517 103V76.8182H42.6136V81.5909H42.8864C43.3636 79.8636 44.142 78.5795 45.2216 77.7386C46.3011 76.8864 47.5568 76.4602 48.9886 76.4602C49.375 76.4602 49.7727 76.4886 50.1818 76.5455C50.5909 76.5909 50.9716 76.6648 51.3239 76.767V84.0114C50.9261 83.875 50.4034 83.767 49.7557 83.6875C49.1193 83.608 48.5511 83.5682 48.0511 83.5682C47.0625 83.5682 46.1705 83.7898 45.375 84.233C44.5909 84.6648 43.9716 85.2727 43.517 86.0568C43.0739 86.8295 42.8523 87.7386 42.8523 88.7841V103H34.517ZM54.7202 103V76.8182H63.0554V103H54.7202ZM58.8963 73.767C57.7259 73.767 56.7202 73.3807 55.8793 72.608C55.0384 71.8239 54.6179 70.8807 54.6179 69.7784C54.6179 68.6875 55.0384 67.7557 55.8793 66.983C56.7202 66.1989 57.7259 65.8068 58.8963 65.8068C60.0781 65.8068 61.0838 66.1989 61.9134 66.983C62.7543 67.7557 63.1747 68.6875 63.1747 69.7784C63.1747 70.8807 62.7543 71.8239 61.9134 72.608C61.0838 73.3807 60.0781 73.767 58.8963 73.767ZM77.9233 103.375C75.9915 103.375 74.2358 102.875 72.6562 101.875C71.0767 100.875 69.8153 99.375 68.8722 97.375C67.929 95.375 67.4574 92.892 67.4574 89.9261C67.4574 86.8466 67.946 84.3125 68.9233 82.3239C69.9006 80.3352 71.179 78.8636 72.7585 77.9091C74.3494 76.9545 76.0597 76.4773 77.8892 76.4773C79.2642 76.4773 80.4403 76.7159 81.4176 77.1932C82.3949 77.6591 83.2017 78.2614 83.8381 79C84.4744 79.7386 84.9574 80.5057 85.2869 81.3011H85.4574V68.0909H93.7926V103H85.5426V98.7557H85.2869C84.9347 99.5625 84.4347 100.318 83.7869 101.023C83.1392 101.727 82.3267 102.295 81.3494 102.727C80.3835 103.159 79.2415 103.375 77.9233 103.375ZM80.821 96.8807C81.8324 96.8807 82.696 96.5966 83.4119 96.0284C84.1278 95.4489 84.679 94.6364 85.0653 93.5909C85.4517 92.5455 85.6449 91.3182 85.6449 89.9091C85.6449 88.4773 85.4517 87.2443 85.0653 86.2102C84.6903 85.1761 84.1392 84.3807 83.4119 83.8239C82.696 83.267 81.8324 82.9886 80.821 82.9886C79.7869 82.9886 78.9119 83.2727 78.196 83.8409C77.4801 84.4091 76.9347 85.2102 76.5597 86.2443C76.196 87.2784 76.0142 88.5 76.0142 89.9091C76.0142 91.3182 76.2017 92.5455 76.5767 93.5909C76.9517 94.6364 77.4915 95.4489 78.196 96.0284C78.9119 96.5966 79.7869 96.8807 80.821 96.8807ZM111.268 113.364C108.78 113.364 106.649 113.017 104.876 112.324C103.104 111.631 101.712 110.682 100.7 109.477C99.6889 108.273 99.081 106.909 98.8764 105.386L106.768 104.943C106.916 105.477 107.189 105.943 107.587 106.341C107.996 106.739 108.524 107.045 109.172 107.261C109.831 107.477 110.604 107.585 111.49 107.585C112.888 107.585 114.041 107.244 114.95 106.562C115.871 105.892 116.331 104.716 116.331 103.034V98.4318H116.041C115.712 99.2386 115.212 99.9602 114.541 100.597C113.871 101.233 113.036 101.733 112.036 102.097C111.047 102.46 109.911 102.642 108.626 102.642C106.717 102.642 104.967 102.199 103.376 101.312C101.797 100.415 100.53 99.0284 99.5753 97.1534C98.6321 95.267 98.1605 92.8409 98.1605 89.875C98.1605 86.8182 98.6491 84.3011 99.6264 82.3239C100.604 80.3352 101.882 78.8636 103.462 77.9091C105.053 76.9545 106.763 76.4773 108.592 76.4773C109.967 76.4773 111.143 76.7159 112.121 77.1932C113.109 77.6591 113.922 78.2614 114.558 79C115.195 79.7386 115.678 80.5057 116.007 81.3011H116.246V76.8182H124.547V103.102C124.547 105.318 123.99 107.188 122.876 108.71C121.763 110.233 120.206 111.386 118.206 112.17C116.206 112.966 113.893 113.364 111.268 113.364ZM111.524 96.5739C112.536 96.5739 113.399 96.3068 114.115 95.7727C114.831 95.2386 115.382 94.4716 115.768 93.4716C116.155 92.4716 116.348 91.2727 116.348 89.875C116.348 88.4545 116.155 87.233 115.768 86.2102C115.393 85.1761 114.842 84.3807 114.115 83.8239C113.399 83.267 112.536 82.9886 111.524 82.9886C110.49 82.9886 109.615 83.2727 108.899 83.8409C108.183 84.4091 107.638 85.2102 107.263 86.2443C106.899 87.267 106.717 88.4773 106.717 89.875C106.717 91.2727 106.905 92.4716 107.28 93.4716C107.655 94.4716 108.195 95.2386 108.899 95.7727C109.615 96.3068 110.49 96.5739 111.524 96.5739ZM142.099 103.494C139.361 103.494 136.997 102.955 135.009 101.875C133.031 100.784 131.509 99.233 130.44 97.2216C129.384 95.1989 128.855 92.7955 128.855 90.0114C128.855 87.3068 129.389 84.9432 130.457 82.9205C131.526 80.8864 133.031 79.3068 134.974 78.1818C136.918 77.0455 139.207 76.4773 141.844 76.4773C143.707 76.4773 145.412 76.767 146.957 77.3466C148.503 77.9261 149.838 78.7841 150.963 79.9205C152.088 81.0568 152.963 82.4602 153.588 84.1307C154.213 85.7898 154.526 87.6932 154.526 89.8409V91.9205H131.77V87.0795H146.77C146.759 86.1932 146.548 85.4034 146.139 84.7102C145.73 84.017 145.168 83.4773 144.452 83.0909C143.747 82.6932 142.935 82.4943 142.014 82.4943C141.082 82.4943 140.247 82.7045 139.509 83.125C138.77 83.5341 138.185 84.0966 137.753 84.8125C137.321 85.517 137.094 86.3182 137.071 87.2159V92.142C137.071 93.2102 137.281 94.1477 137.702 94.9545C138.122 95.75 138.719 96.3693 139.491 96.8125C140.264 97.2557 141.185 97.4773 142.253 97.4773C142.991 97.4773 143.662 97.375 144.264 97.1705C144.866 96.9659 145.384 96.6648 145.815 96.267C146.247 95.8693 146.571 95.3807 146.787 94.8011L154.44 95.0227C154.122 96.7386 153.423 98.233 152.344 99.5057C151.276 100.767 149.872 101.75 148.134 102.455C146.395 103.148 144.384 103.494 142.099 103.494ZM177.652 78.5568C177.538 77.3068 177.033 76.3352 176.135 75.642C175.249 74.9375 173.982 74.5852 172.334 74.5852C171.243 74.5852 170.334 74.7273 169.607 75.0114C168.879 75.2955 168.334 75.6875 167.97 76.1875C167.607 76.6761 167.419 77.2386 167.408 77.875C167.385 78.3977 167.487 78.858 167.714 79.2557C167.953 79.6534 168.294 80.0057 168.737 80.3125C169.192 80.608 169.737 80.8693 170.374 81.0966C171.01 81.3239 171.726 81.5227 172.521 81.6932L175.521 82.375C177.249 82.75 178.771 83.25 180.089 83.875C181.419 84.5 182.533 85.2443 183.43 86.108C184.339 86.9716 185.027 87.9659 185.493 89.0909C185.959 90.2159 186.197 91.4773 186.209 92.875C186.197 95.0795 185.641 96.9716 184.538 98.5511C183.436 100.131 181.851 101.341 179.783 102.182C177.726 103.023 175.243 103.443 172.334 103.443C169.413 103.443 166.868 103.006 164.697 102.131C162.527 101.256 160.839 99.9261 159.635 98.142C158.43 96.358 157.811 94.1023 157.777 91.375H165.857C165.925 92.5 166.226 93.4375 166.76 94.1875C167.294 94.9375 168.027 95.5057 168.959 95.892C169.902 96.2784 170.993 96.4716 172.232 96.4716C173.368 96.4716 174.334 96.3182 175.129 96.0114C175.936 95.7045 176.555 95.2784 176.987 94.733C177.419 94.1875 177.641 93.5625 177.652 92.858C177.641 92.1989 177.436 91.6364 177.038 91.1705C176.641 90.6932 176.027 90.2841 175.197 89.9432C174.379 89.5909 173.334 89.267 172.061 88.9716L168.413 88.1193C165.391 87.4261 163.01 86.3068 161.271 84.7614C159.533 83.2045 158.669 81.1023 158.68 78.4545C158.669 76.2955 159.249 74.4034 160.419 72.7784C161.589 71.1534 163.209 69.8864 165.277 68.9773C167.345 68.0682 169.703 67.6136 172.351 67.6136C175.055 67.6136 177.402 68.0739 179.391 68.9943C181.391 69.9034 182.942 71.1818 184.044 72.8295C185.146 74.4773 185.709 76.3864 185.732 78.5568H177.652ZM190.47 103V76.8182H198.805V103H190.47ZM194.646 73.767C193.476 73.767 192.47 73.3807 191.629 72.608C190.788 71.8239 190.368 70.8807 190.368 69.7784C190.368 68.6875 190.788 67.7557 191.629 66.983C192.47 66.1989 193.476 65.8068 194.646 65.8068C195.828 65.8068 196.834 66.1989 197.663 66.983C198.504 67.7557 198.925 68.6875 198.925 69.7784C198.925 70.8807 198.504 71.8239 197.663 72.608C196.834 73.3807 195.828 73.767 194.646 73.767ZM204.111 103V76.8182H212.037V81.625H212.327C212.872 80.0341 213.793 78.7784 215.088 77.858C216.384 76.9375 217.929 76.4773 219.724 76.4773C221.543 76.4773 223.099 76.9432 224.395 77.875C225.69 78.8068 226.514 80.0568 226.866 81.625H227.139C227.628 80.0682 228.582 78.8239 230.003 77.892C231.423 76.9489 233.099 76.4773 235.031 76.4773C237.509 76.4773 239.52 77.2727 241.065 78.8636C242.611 80.4432 243.384 82.6136 243.384 85.375V103H235.048V87.2841C235.048 85.9773 234.713 84.983 234.043 84.3011C233.372 83.608 232.503 83.2614 231.435 83.2614C230.287 83.2614 229.384 83.6364 228.724 84.3864C228.077 85.125 227.753 86.1193 227.753 87.3693V103H219.741V87.1989C219.741 85.983 219.412 85.0227 218.753 84.3182C218.094 83.6136 217.224 83.2614 216.145 83.2614C215.418 83.2614 214.776 83.4375 214.219 83.7898C213.662 84.1307 213.224 84.6193 212.906 85.2557C212.599 85.892 212.446 86.642 212.446 87.5057V103H204.111Z"/>
</mask>
<path d="M2.64205 103V68.0909H17.1989C19.8125 68.0909 22 68.4602 23.7614 69.1989C25.5341 69.9375 26.8636 70.9716 27.75 72.3011C28.6477 73.6307 29.0966 75.1705 29.0966 76.9205C29.0966 78.25 28.8182 79.4375 28.2614 80.483C27.7045 81.517 26.9375 82.375 25.9602 83.0568C24.983 83.7386 23.8523 84.2159 22.5682 84.4886V84.8295C23.9773 84.8977 25.2784 85.2784 26.4716 85.9716C27.6761 86.6648 28.642 87.6307 29.3693 88.8693C30.0966 90.0966 30.4602 91.5511 30.4602 93.233C30.4602 95.108 29.983 96.7841 29.0284 98.2614C28.0739 99.7273 26.6932 100.886 24.8864 101.739C23.0795 102.58 20.8864 103 18.3068 103H2.64205ZM11.0795 96.1989H16.2955C18.125 96.1989 19.4716 95.8523 20.3352 95.1591C21.2102 94.4659 21.6477 93.5 21.6477 92.2614C21.6477 91.3636 21.4375 90.5909 21.017 89.9432C20.5966 89.2841 20 88.7784 19.2273 88.4261C18.4545 88.0625 17.5284 87.8807 16.4489 87.8807H11.0795V96.1989ZM11.0795 82.4432H15.75C16.6705 82.4432 17.4886 82.2898 18.2045 81.983C18.9205 81.6761 19.4773 81.233 19.875 80.6534C20.2841 80.0739 20.4886 79.375 20.4886 78.5568C20.4886 77.3864 20.0739 76.4659 19.2443 75.7955C18.4148 75.125 17.2955 74.7898 15.8864 74.7898H11.0795V82.4432ZM34.517 103V76.8182H42.6136V81.5909H42.8864C43.3636 79.8636 44.142 78.5795 45.2216 77.7386C46.3011 76.8864 47.5568 76.4602 48.9886 76.4602C49.375 76.4602 49.7727 76.4886 50.1818 76.5455C50.5909 76.5909 50.9716 76.6648 51.3239 76.767V84.0114C50.9261 83.875 50.4034 83.767 49.7557 83.6875C49.1193 83.608 48.5511 83.5682 48.0511 83.5682C47.0625 83.5682 46.1705 83.7898 45.375 84.233C44.5909 84.6648 43.9716 85.2727 43.517 86.0568C43.0739 86.8295 42.8523 87.7386 42.8523 88.7841V103H34.517ZM54.7202 103V76.8182H63.0554V103H54.7202ZM58.8963 73.767C57.7259 73.767 56.7202 73.3807 55.8793 72.608C55.0384 71.8239 54.6179 70.8807 54.6179 69.7784C54.6179 68.6875 55.0384 67.7557 55.8793 66.983C56.7202 66.1989 57.7259 65.8068 58.8963 65.8068C60.0781 65.8068 61.0838 66.1989 61.9134 66.983C62.7543 67.7557 63.1747 68.6875 63.1747 69.7784C63.1747 70.8807 62.7543 71.8239 61.9134 72.608C61.0838 73.3807 60.0781 73.767 58.8963 73.767ZM77.9233 103.375C75.9915 103.375 74.2358 102.875 72.6562 101.875C71.0767 100.875 69.8153 99.375 68.8722 97.375C67.929 95.375 67.4574 92.892 67.4574 89.9261C67.4574 86.8466 67.946 84.3125 68.9233 82.3239C69.9006 80.3352 71.179 78.8636 72.7585 77.9091C74.3494 76.9545 76.0597 76.4773 77.8892 76.4773C79.2642 76.4773 80.4403 76.7159 81.4176 77.1932C82.3949 77.6591 83.2017 78.2614 83.8381 79C84.4744 79.7386 84.9574 80.5057 85.2869 81.3011H85.4574V68.0909H93.7926V103H85.5426V98.7557H85.2869C84.9347 99.5625 84.4347 100.318 83.7869 101.023C83.1392 101.727 82.3267 102.295 81.3494 102.727C80.3835 103.159 79.2415 103.375 77.9233 103.375ZM80.821 96.8807C81.8324 96.8807 82.696 96.5966 83.4119 96.0284C84.1278 95.4489 84.679 94.6364 85.0653 93.5909C85.4517 92.5455 85.6449 91.3182 85.6449 89.9091C85.6449 88.4773 85.4517 87.2443 85.0653 86.2102C84.6903 85.1761 84.1392 84.3807 83.4119 83.8239C82.696 83.267 81.8324 82.9886 80.821 82.9886C79.7869 82.9886 78.9119 83.2727 78.196 83.8409C77.4801 84.4091 76.9347 85.2102 76.5597 86.2443C76.196 87.2784 76.0142 88.5 76.0142 89.9091C76.0142 91.3182 76.2017 92.5455 76.5767 93.5909C76.9517 94.6364 77.4915 95.4489 78.196 96.0284C78.9119 96.5966 79.7869 96.8807 80.821 96.8807ZM111.268 113.364C108.78 113.364 106.649 113.017 104.876 112.324C103.104 111.631 101.712 110.682 100.7 109.477C99.6889 108.273 99.081 106.909 98.8764 105.386L106.768 104.943C106.916 105.477 107.189 105.943 107.587 106.341C107.996 106.739 108.524 107.045 109.172 107.261C109.831 107.477 110.604 107.585 111.49 107.585C112.888 107.585 114.041 107.244 114.95 106.562C115.871 105.892 116.331 104.716 116.331 103.034V98.4318H116.041C115.712 99.2386 115.212 99.9602 114.541 100.597C113.871 101.233 113.036 101.733 112.036 102.097C111.047 102.46 109.911 102.642 108.626 102.642C106.717 102.642 104.967 102.199 103.376 101.312C101.797 100.415 100.53 99.0284 99.5753 97.1534C98.6321 95.267 98.1605 92.8409 98.1605 89.875C98.1605 86.8182 98.6491 84.3011 99.6264 82.3239C100.604 80.3352 101.882 78.8636 103.462 77.9091C105.053 76.9545 106.763 76.4773 108.592 76.4773C109.967 76.4773 111.143 76.7159 112.121 77.1932C113.109 77.6591 113.922 78.2614 114.558 79C115.195 79.7386 115.678 80.5057 116.007 81.3011H116.246V76.8182H124.547V103.102C124.547 105.318 123.99 107.188 122.876 108.71C121.763 110.233 120.206 111.386 118.206 112.17C116.206 112.966 113.893 113.364 111.268 113.364ZM111.524 96.5739C112.536 96.5739 113.399 96.3068 114.115 95.7727C114.831 95.2386 115.382 94.4716 115.768 93.4716C116.155 92.4716 116.348 91.2727 116.348 89.875C116.348 88.4545 116.155 87.233 115.768 86.2102C115.393 85.1761 114.842 84.3807 114.115 83.8239C113.399 83.267 112.536 82.9886 111.524 82.9886C110.49 82.9886 109.615 83.2727 108.899 83.8409C108.183 84.4091 107.638 85.2102 107.263 86.2443C106.899 87.267 106.717 88.4773 106.717 89.875C106.717 91.2727 106.905 92.4716 107.28 93.4716C107.655 94.4716 108.195 95.2386 108.899 95.7727C109.615 96.3068 110.49 96.5739 111.524 96.5739ZM142.099 103.494C139.361 103.494 136.997 102.955 135.009 101.875C133.031 100.784 131.509 99.233 130.44 97.2216C129.384 95.1989 128.855 92.7955 128.855 90.0114C128.855 87.3068 129.389 84.9432 130.457 82.9205C131.526 80.8864 133.031 79.3068 134.974 78.1818C136.918 77.0455 139.207 76.4773 141.844 76.4773C143.707 76.4773 145.412 76.767 146.957 77.3466C148.503 77.9261 149.838 78.7841 150.963 79.9205C152.088 81.0568 152.963 82.4602 153.588 84.1307C154.213 85.7898 154.526 87.6932 154.526 89.8409V91.9205H131.77V87.0795H146.77C146.759 86.1932 146.548 85.4034 146.139 84.7102C145.73 84.017 145.168 83.4773 144.452 83.0909C143.747 82.6932 142.935 82.4943 142.014 82.4943C141.082 82.4943 140.247 82.7045 139.509 83.125C138.77 83.5341 138.185 84.0966 137.753 84.8125C137.321 85.517 137.094 86.3182 137.071 87.2159V92.142C137.071 93.2102 137.281 94.1477 137.702 94.9545C138.122 95.75 138.719 96.3693 139.491 96.8125C140.264 97.2557 141.185 97.4773 142.253 97.4773C142.991 97.4773 143.662 97.375 144.264 97.1705C144.866 96.9659 145.384 96.6648 145.815 96.267C146.247 95.8693 146.571 95.3807 146.787 94.8011L154.44 95.0227C154.122 96.7386 153.423 98.233 152.344 99.5057C151.276 100.767 149.872 101.75 148.134 102.455C146.395 103.148 144.384 103.494 142.099 103.494ZM177.652 78.5568C177.538 77.3068 177.033 76.3352 176.135 75.642C175.249 74.9375 173.982 74.5852 172.334 74.5852C171.243 74.5852 170.334 74.7273 169.607 75.0114C168.879 75.2955 168.334 75.6875 167.97 76.1875C167.607 76.6761 167.419 77.2386 167.408 77.875C167.385 78.3977 167.487 78.858 167.714 79.2557C167.953 79.6534 168.294 80.0057 168.737 80.3125C169.192 80.608 169.737 80.8693 170.374 81.0966C171.01 81.3239 171.726 81.5227 172.521 81.6932L175.521 82.375C177.249 82.75 178.771 83.25 180.089 83.875C181.419 84.5 182.533 85.2443 183.43 86.108C184.339 86.9716 185.027 87.9659 185.493 89.0909C185.959 90.2159 186.197 91.4773 186.209 92.875C186.197 95.0795 185.641 96.9716 184.538 98.5511C183.436 100.131 181.851 101.341 179.783 102.182C177.726 103.023 175.243 103.443 172.334 103.443C169.413 103.443 166.868 103.006 164.697 102.131C162.527 101.256 160.839 99.9261 159.635 98.142C158.43 96.358 157.811 94.1023 157.777 91.375H165.857C165.925 92.5 166.226 93.4375 166.76 94.1875C167.294 94.9375 168.027 95.5057 168.959 95.892C169.902 96.2784 170.993 96.4716 172.232 96.4716C173.368 96.4716 174.334 96.3182 175.129 96.0114C175.936 95.7045 176.555 95.2784 176.987 94.733C177.419 94.1875 177.641 93.5625 177.652 92.858C177.641 92.1989 177.436 91.6364 177.038 91.1705C176.641 90.6932 176.027 90.2841 175.197 89.9432C174.379 89.5909 173.334 89.267 172.061 88.9716L168.413 88.1193C165.391 87.4261 163.01 86.3068 161.271 84.7614C159.533 83.2045 158.669 81.1023 158.68 78.4545C158.669 76.2955 159.249 74.4034 160.419 72.7784C161.589 71.1534 163.209 69.8864 165.277 68.9773C167.345 68.0682 169.703 67.6136 172.351 67.6136C175.055 67.6136 177.402 68.0739 179.391 68.9943C181.391 69.9034 182.942 71.1818 184.044 72.8295C185.146 74.4773 185.709 76.3864 185.732 78.5568H177.652ZM190.47 103V76.8182H198.805V103H190.47ZM194.646 73.767C193.476 73.767 192.47 73.3807 191.629 72.608C190.788 71.8239 190.368 70.8807 190.368 69.7784C190.368 68.6875 190.788 67.7557 191.629 66.983C192.47 66.1989 193.476 65.8068 194.646 65.8068C195.828 65.8068 196.834 66.1989 197.663 66.983C198.504 67.7557 198.925 68.6875 198.925 69.7784C198.925 70.8807 198.504 71.8239 197.663 72.608C196.834 73.3807 195.828 73.767 194.646 73.767ZM204.111 103V76.8182H212.037V81.625H212.327C212.872 80.0341 213.793 78.7784 215.088 77.858C216.384 76.9375 217.929 76.4773 219.724 76.4773C221.543 76.4773 223.099 76.9432 224.395 77.875C225.69 78.8068 226.514 80.0568 226.866 81.625H227.139C227.628 80.0682 228.582 78.8239 230.003 77.892C231.423 76.9489 233.099 76.4773 235.031 76.4773C237.509 76.4773 239.52 77.2727 241.065 78.8636C242.611 80.4432 243.384 82.6136 243.384 85.375V103H235.048V87.2841C235.048 85.9773 234.713 84.983 234.043 84.3011C233.372 83.608 232.503 83.2614 231.435 83.2614C230.287 83.2614 229.384 83.6364 228.724 84.3864C228.077 85.125 227.753 86.1193 227.753 87.3693V103H219.741V87.1989C219.741 85.983 219.412 85.0227 218.753 84.3182C218.094 83.6136 217.224 83.2614 216.145 83.2614C215.418 83.2614 214.776 83.4375 214.219 83.7898C213.662 84.1307 213.224 84.6193 212.906 85.2557C212.599 85.892 212.446 86.642 212.446 87.5057V103H204.111Z" fill="white"/>
<path d="M2.64205 103H-1.35795V107H2.64205V103ZM2.64205 68.0909V64.0909H-1.35795V68.0909H2.64205ZM23.7614 69.1989L22.2145 72.8876L22.2229 72.8912L23.7614 69.1989ZM27.75 72.3011L24.4218 74.5199L24.4283 74.5297L24.4349 74.5395L27.75 72.3011ZM28.2614 80.483L31.7832 82.3794L31.7876 82.3713L31.7918 82.3633L28.2614 80.483ZM25.9602 83.0568L23.6715 79.7763L23.6715 79.7763L25.9602 83.0568ZM22.5682 84.4886L21.7372 80.5759L18.5682 81.249V84.4886H22.5682ZM22.5682 84.8295H18.5682V88.6407L22.3749 88.8249L22.5682 84.8295ZM26.4716 85.9716L24.4623 89.4303L24.4694 89.4344L24.4765 89.4385L26.4716 85.9716ZM29.3693 88.8693L25.92 90.8946L25.924 90.9016L25.9282 90.9085L29.3693 88.8693ZM29.0284 98.2614L32.3804 100.444L32.3881 100.432L29.0284 98.2614ZM24.8864 101.739L26.5742 105.365L26.5835 105.361L26.5928 105.356L24.8864 101.739ZM11.0795 96.1989H7.07955V100.199H11.0795V96.1989ZM20.3352 95.1591L17.8514 92.0237L17.8414 92.0316L17.8314 92.0396L20.3352 95.1591ZM21.017 89.9432L17.6448 92.0944L17.6533 92.1078L17.6619 92.1211L21.017 89.9432ZM19.2273 88.4261L17.5241 92.0454L17.546 92.0557L17.568 92.0658L19.2273 88.4261ZM11.0795 87.8807V83.8807H7.07955V87.8807H11.0795ZM11.0795 82.4432H7.07955V86.4432H11.0795V82.4432ZM19.875 80.6534L16.6071 78.3467L16.5919 78.3683L16.5769 78.39L19.875 80.6534ZM19.2443 75.7955L21.7587 72.6845L21.7587 72.6845L19.2443 75.7955ZM11.0795 74.7898V70.7898H7.07955V74.7898H11.0795ZM6.64205 103V68.0909H-1.35795V103H6.64205ZM2.64205 72.0909H17.1989V64.0909H2.64205V72.0909ZM17.1989 72.0909C19.4647 72.0909 21.0877 72.4151 22.2145 72.8876L25.3083 65.5101C22.9123 64.5053 20.1603 64.0909 17.1989 64.0909V72.0909ZM22.2229 72.8912C23.4159 73.3883 24.0553 73.9702 24.4218 74.5199L31.0782 70.0823C29.672 67.973 27.6522 66.4867 25.2998 65.5066L22.2229 72.8912ZM24.4349 74.5395C24.8457 75.1478 25.0966 75.8924 25.0966 76.9205H33.0966C33.0966 74.4485 32.4498 72.1136 31.0651 70.0628L24.4349 74.5395ZM25.0966 76.9205C25.0966 77.6757 24.9433 78.2038 24.7309 78.6026L31.7918 82.3633C32.6931 80.6712 33.0966 78.8243 33.0966 76.9205H25.0966ZM24.7395 78.5866C24.4841 79.0608 24.1428 79.4475 23.6715 79.7763L28.249 86.3373C29.7322 85.3025 30.925 83.9733 31.7832 82.3794L24.7395 78.5866ZM23.6715 79.7763C23.1756 80.1223 22.5514 80.403 21.7372 80.5759L23.3992 88.4014C25.1532 88.0288 26.7903 87.355 28.249 86.3373L23.6715 79.7763ZM18.5682 84.4886V84.8295H26.5682V84.4886H18.5682ZM22.3749 88.8249C23.1592 88.8628 23.8354 89.0661 24.4623 89.4303L28.4809 82.5129C26.7214 81.4907 24.7953 80.9326 22.7615 80.8342L22.3749 88.8249ZM24.4765 89.4385C25.0587 89.7736 25.5318 90.2336 25.92 90.8946L32.8187 86.844C31.7523 85.0277 30.2936 83.556 28.4667 82.5047L24.4765 89.4385ZM25.9282 90.9085C26.2288 91.4159 26.4602 92.1392 26.4602 93.233H34.4602C34.4602 90.9631 33.9644 88.7773 32.8105 86.8301L25.9282 90.9085ZM26.4602 93.233C26.4602 94.391 26.1773 95.3034 25.6687 96.0905L32.3881 100.432C33.7886 98.2647 34.4602 95.8249 34.4602 93.233H26.4602ZM25.6764 96.0787C25.1817 96.8384 24.4132 97.5392 23.1799 98.1209L26.5928 105.356C28.9732 104.234 30.966 102.616 32.3804 100.444L25.6764 96.0787ZM23.1986 98.1122C22.0519 98.6458 20.4682 99 18.3068 99V107C21.3045 107 24.1072 106.513 26.5742 105.365L23.1986 98.1122ZM18.3068 99H2.64205V107H18.3068V99ZM11.0795 100.199H16.2955V92.1989H11.0795V100.199ZM16.2955 100.199C18.4887 100.199 20.9321 99.8091 22.839 98.2786L17.8314 92.0396C17.9406 91.952 17.94 91.9984 17.6805 92.0652C17.4167 92.1331 16.973 92.1989 16.2955 92.1989V100.199ZM22.8191 98.2944C24.7654 96.7526 25.6477 94.5692 25.6477 92.2614H17.6477C17.6477 92.4063 17.6236 92.3799 17.6759 92.2644C17.7006 92.2099 17.7339 92.1551 17.7724 92.1064C17.8104 92.0583 17.8412 92.0318 17.8514 92.0237L22.8191 98.2944ZM25.6477 92.2614C25.6477 90.719 25.2784 89.1613 24.3722 87.7653L17.6619 92.1211C17.6516 92.1052 17.6432 92.0894 17.6371 92.0756C17.6311 92.062 17.6295 92.0554 17.6303 92.0586C17.6319 92.0643 17.6477 92.125 17.6477 92.2614H25.6477ZM24.3893 87.7919C23.5177 86.4256 22.2988 85.4303 20.8865 84.7865L17.568 92.0658C17.6091 92.0845 17.6354 92.0996 17.65 92.1087C17.6644 92.1178 17.6694 92.1222 17.6679 92.1209C17.6663 92.1196 17.6615 92.1153 17.6556 92.1085C17.6497 92.1018 17.6461 92.0964 17.6448 92.0944L24.3893 87.7919ZM20.9305 84.8069C19.5036 84.1354 17.9665 83.8807 16.4489 83.8807V91.8807C17.0903 91.8807 17.4055 91.9896 17.5241 92.0454L20.9305 84.8069ZM16.4489 83.8807H11.0795V91.8807H16.4489V83.8807ZM7.07955 87.8807V96.1989H15.0795V87.8807H7.07955ZM11.0795 86.4432H15.75V78.4432H11.0795V86.4432ZM15.75 86.4432C17.1152 86.4432 18.4844 86.2149 19.7802 85.6595L16.6289 78.3064C16.4929 78.3647 16.2257 78.4432 15.75 78.4432V86.4432ZM19.7802 85.6595C21.1147 85.0876 22.3011 84.1873 23.1731 82.9168L16.5769 78.39C16.5898 78.3713 16.6053 78.3519 16.6227 78.3332C16.64 78.3146 16.6559 78.3005 16.6681 78.2908C16.694 78.2702 16.6894 78.2804 16.6289 78.3064L19.7802 85.6595ZM23.1429 82.9601C24.0987 81.6061 24.4886 80.0701 24.4886 78.5568H16.4886C16.4886 78.6319 16.4795 78.6284 16.4963 78.571C16.5145 78.5086 16.5507 78.4267 16.6071 78.3467L23.1429 82.9601ZM24.4886 78.5568C24.4886 76.3123 23.6273 74.1948 21.7587 72.6845L16.73 78.9064C16.7146 78.894 16.6795 78.8626 16.638 78.8095C16.5959 78.7557 16.5589 78.6945 16.5307 78.632C16.4711 78.4997 16.4886 78.4485 16.4886 78.5568H24.4886ZM21.7587 72.6845C20.0173 71.2771 17.9151 70.7898 15.8864 70.7898V78.7898C16.6758 78.7898 16.8123 78.9729 16.73 78.9064L21.7587 72.6845ZM15.8864 70.7898H11.0795V78.7898H15.8864V70.7898ZM7.07955 74.7898V82.4432H15.0795V74.7898H7.07955ZM34.517 103H30.517V107H34.517V103ZM34.517 76.8182V72.8182H30.517V76.8182H34.517ZM42.6136 76.8182H46.6136V72.8182H42.6136V76.8182ZM42.6136 81.5909H38.6136V85.5909H42.6136V81.5909ZM42.8864 81.5909V85.5909H45.931L46.7419 82.6562L42.8864 81.5909ZM45.2216 77.7386L47.6797 80.8943L47.6899 80.8862L47.7002 80.8782L45.2216 77.7386ZM50.1818 76.5455L49.6315 80.5074L49.6857 80.5149L49.7401 80.521L50.1818 76.5455ZM51.3239 76.767H55.3239V73.7632L52.4391 72.9257L51.3239 76.767ZM51.3239 84.0114L50.0266 87.7951L55.3239 89.6114V84.0114H51.3239ZM49.7557 83.6875L49.2595 87.6566L49.2681 87.6577L49.7557 83.6875ZM45.375 84.233L47.3046 87.7367L47.3132 87.732L47.3218 87.7272L45.375 84.233ZM43.517 86.0568L40.0565 84.0507L40.0518 84.0587L40.0472 84.0668L43.517 86.0568ZM42.8523 103V107H46.8523V103H42.8523ZM38.517 103V76.8182H30.517V103H38.517ZM34.517 80.8182H42.6136V72.8182H34.517V80.8182ZM38.6136 76.8182V81.5909H46.6136V76.8182H38.6136ZM42.6136 85.5909H42.8864V77.5909H42.6136V85.5909ZM46.7419 82.6562C47.0609 81.5017 47.4618 81.0639 47.6797 80.8943L42.7635 74.583C40.8223 76.0952 39.6664 78.2256 39.0308 80.5256L46.7419 82.6562ZM47.7002 80.8782C48.0432 80.6074 48.4165 80.4602 48.9886 80.4602V72.4602C46.6972 72.4602 44.5591 73.1653 42.743 74.5991L47.7002 80.8782ZM48.9886 80.4602C49.1788 80.4602 49.3924 80.4742 49.6315 80.5074L50.7321 72.5835C50.1531 72.5031 49.5712 72.4602 48.9886 72.4602V80.4602ZM49.7401 80.521C49.9484 80.5441 50.1013 80.5773 50.2086 80.6084L52.4391 72.9257C51.8418 72.7523 51.2334 72.6377 50.6235 72.5699L49.7401 80.521ZM47.3239 76.767V84.0114H55.3239V76.767H47.3239ZM52.6212 80.2276C51.8586 79.9661 51.0334 79.8144 50.2432 79.7173L49.2681 87.6577C49.5069 87.687 49.6898 87.7176 49.8245 87.7455C49.8909 87.7592 49.9408 87.7712 49.9759 87.7805C50.0114 87.79 50.0273 87.7954 50.0266 87.7951L52.6212 80.2276ZM50.2518 79.7184C49.4943 79.6237 48.7556 79.5682 48.0511 79.5682V87.5682C48.3466 87.5682 48.7444 87.5922 49.2595 87.6566L50.2518 79.7184ZM48.0511 79.5682C46.4411 79.5682 44.8692 79.9358 43.4282 80.7387L47.3218 87.7272C47.4717 87.6437 47.6839 87.5682 48.0511 87.5682V79.5682ZM43.4454 80.7292C42.016 81.5164 40.8709 82.6458 40.0565 84.0507L46.9776 88.0629C47.0723 87.8997 47.1658 87.8132 47.3046 87.7367L43.4454 80.7292ZM40.0472 84.0668C39.2006 85.543 38.8523 87.1625 38.8523 88.7841H46.8523C46.8523 88.3148 46.9472 88.1161 46.9869 88.0469L40.0472 84.0668ZM38.8523 88.7841V103H46.8523V88.7841H38.8523ZM42.8523 99H34.517V107H42.8523V99ZM54.7202 103H50.7202V107H54.7202V103ZM54.7202 76.8182V72.8182H50.7202V76.8182H54.7202ZM63.0554 76.8182H67.0554V72.8182H63.0554V76.8182ZM63.0554 103V107H67.0554V103H63.0554ZM55.8793 72.608L53.1514 75.5335L53.162 75.5434L53.1728 75.5533L55.8793 72.608ZM55.8793 66.983L58.5858 69.9283L58.5965 69.9184L58.6071 69.9085L55.8793 66.983ZM61.9134 66.983L59.1657 69.8899L59.1861 69.9092L59.2069 69.9283L61.9134 66.983ZM61.9134 72.608L64.6398 75.5348L64.6412 75.5335L61.9134 72.608ZM58.7202 103V76.8182H50.7202V103H58.7202ZM54.7202 80.8182H63.0554V72.8182H54.7202V80.8182ZM59.0554 76.8182V103H67.0554V76.8182H59.0554ZM63.0554 99H54.7202V107H63.0554V99ZM58.8963 69.767C58.759 69.767 58.7056 69.746 58.6987 69.7433C58.6934 69.7413 58.6581 69.7291 58.5858 69.6626L53.1728 75.5533C54.7719 77.0227 56.751 77.767 58.8963 77.767V69.767ZM58.6071 69.6824C58.5682 69.6461 58.5555 69.628 58.5578 69.6311C58.5606 69.6349 58.5729 69.653 58.5867 69.6839C58.6006 69.715 58.6098 69.7456 58.6148 69.7699C58.6197 69.7935 58.6179 69.7984 58.6179 69.7784H50.6179C50.6179 72.0428 51.5385 74.0296 53.1514 75.5335L58.6071 69.6824ZM58.6179 69.7784C58.6179 69.7639 58.6191 69.7747 58.613 69.8041C58.6067 69.8343 58.5956 69.8704 58.5793 69.9065C58.5631 69.9424 58.5481 69.9645 58.5428 69.9717C58.5381 69.978 58.5485 69.9625 58.5858 69.9283L53.1728 64.0376C51.5511 65.5278 50.6179 67.5101 50.6179 69.7784H58.6179ZM58.6071 69.9085C58.6474 69.8709 58.6752 69.8514 58.6897 69.8422C58.7037 69.8333 58.712 69.8296 58.717 69.8277C58.7191 69.8269 58.766 69.8068 58.8963 69.8068V61.8068C56.7336 61.8068 54.7475 62.5692 53.1514 64.0574L58.6071 69.9085ZM58.8963 69.8068C58.97 69.8068 59.0177 69.8129 59.044 69.8176C59.0697 69.8222 59.0813 69.8266 59.0841 69.8277C59.0867 69.8287 59.091 69.8305 59.0999 69.8362C59.1092 69.8421 59.1314 69.8575 59.1657 69.8899L64.661 64.076C63.0603 62.563 61.06 61.8068 58.8963 61.8068V69.8068ZM59.2069 69.9283C59.2441 69.9625 59.2545 69.978 59.2498 69.9717C59.2445 69.9645 59.2295 69.9424 59.2134 69.9065C59.197 69.8704 59.1859 69.8343 59.1796 69.8041C59.1735 69.7747 59.1747 69.7639 59.1747 69.7784H67.1747C67.1747 67.5101 66.2415 65.5278 64.6199 64.0376L59.2069 69.9283ZM59.1747 69.7784C59.1747 69.7984 59.173 69.7935 59.1778 69.7699C59.1828 69.7456 59.192 69.715 59.2059 69.6839C59.2197 69.653 59.2321 69.6349 59.2349 69.6311C59.2371 69.628 59.2244 69.6461 59.1855 69.6824L64.6412 75.5335C66.2541 74.0296 67.1747 72.0428 67.1747 69.7784H59.1747ZM59.1869 69.6811C59.1537 69.712 59.1319 69.727 59.1222 69.7331C59.1129 69.739 59.1072 69.7415 59.1024 69.7433C59.0998 69.7443 59.0444 69.767 58.8963 69.767V77.767C61.0426 77.767 63.0359 77.0289 64.6398 75.5348L59.1869 69.6811ZM72.6562 101.875L70.5166 105.255L70.5166 105.255L72.6562 101.875ZM68.8722 97.375L65.2543 99.0812L65.2543 99.0812L68.8722 97.375ZM68.9233 82.3239L72.5132 84.0881L72.5132 84.0881L68.9233 82.3239ZM72.7585 77.9091L70.7005 74.4791L70.6897 74.4857L72.7585 77.9091ZM81.4176 77.1932L79.6623 80.7875L79.6792 80.7957L79.6962 80.8038L81.4176 77.1932ZM83.8381 79L86.8685 76.3892L86.8685 76.3892L83.8381 79ZM85.2869 81.3011L81.5915 82.8321L82.6144 85.3011H85.2869V81.3011ZM85.4574 81.3011V85.3011H89.4574V81.3011H85.4574ZM85.4574 68.0909V64.0909H81.4574V68.0909H85.4574ZM93.7926 68.0909H97.7926V64.0909H93.7926V68.0909ZM93.7926 103V107H97.7926V103H93.7926ZM85.5426 103H81.5426V107H85.5426V103ZM85.5426 98.7557H89.5426V94.7557H85.5426V98.7557ZM85.2869 98.7557V94.7557H82.6688L81.6211 97.1551L85.2869 98.7557ZM83.7869 101.023L80.8423 98.3155L80.8423 98.3155L83.7869 101.023ZM81.3494 102.727L79.7328 99.0685L79.7248 99.072L79.7169 99.0756L81.3494 102.727ZM83.4119 96.0284L85.8986 99.1616L85.9137 99.1495L85.9287 99.1374L83.4119 96.0284ZM85.0653 93.5909L88.8173 94.9775L88.8173 94.9775L85.0653 93.5909ZM85.0653 86.2102L81.305 87.5739L81.3116 87.5921L81.3183 87.6102L85.0653 86.2102ZM83.4119 83.8239L80.9562 86.9813L80.9682 86.9906L80.9803 86.9999L83.4119 83.8239ZM76.5597 86.2443L72.7993 84.8807L72.7926 84.899L72.7862 84.9174L76.5597 86.2443ZM78.196 96.0284L75.6549 99.1176L75.682 99.1398L75.7094 99.1616L78.196 96.0284ZM77.9233 99.375C76.7224 99.375 75.7132 99.0761 74.7959 98.4954L70.5166 105.255C72.7584 106.674 75.2605 107.375 77.9233 107.375V99.375ZM74.7959 98.4954C73.9674 97.9708 73.1694 97.1094 72.49 95.6688L65.2543 99.0812C66.4613 101.641 68.186 103.779 70.5166 105.255L74.7959 98.4954ZM72.49 95.6688C71.869 94.352 71.4574 92.4934 71.4574 89.9261H63.4574C63.4574 93.2907 63.9889 96.398 65.2543 99.0812L72.49 95.6688ZM71.4574 89.9261C71.4574 87.2339 71.8898 85.3567 72.5132 84.0881L65.3334 80.5597C64.0023 83.2683 63.4574 86.4593 63.4574 89.9261H71.4574ZM72.5132 84.0881C73.2212 82.6474 74.0245 81.8177 74.8274 81.3325L70.6897 74.4857C68.3334 75.9096 66.5799 78.0231 65.3334 80.5597L72.5132 84.0881ZM74.8165 81.3391C75.795 80.752 76.7953 80.4773 77.8892 80.4773V72.4773C75.324 72.4773 72.9039 73.1571 70.7005 74.4791L74.8165 81.3391ZM77.8892 80.4773C78.8121 80.4773 79.3566 80.6381 79.6623 80.7875L83.173 73.5989C81.5241 72.7937 79.7163 72.4773 77.8892 72.4773V80.4773ZM79.6962 80.8038C80.2281 81.0574 80.5717 81.337 80.8076 81.6108L86.8685 76.3892C85.8317 75.1858 84.5617 74.2608 83.139 73.5825L79.6962 80.8038ZM80.8076 81.6108C81.2025 82.0692 81.4448 82.4779 81.5915 82.8321L88.9824 79.7702C88.47 78.5335 87.7463 77.4081 86.8685 76.3892L80.8076 81.6108ZM85.2869 85.3011H85.4574V77.3011H85.2869V85.3011ZM89.4574 81.3011V68.0909H81.4574V81.3011H89.4574ZM85.4574 72.0909H93.7926V64.0909H85.4574V72.0909ZM89.7926 68.0909V103H97.7926V68.0909H89.7926ZM93.7926 99H85.5426V107H93.7926V99ZM89.5426 103V98.7557H81.5426V103H89.5426ZM85.5426 94.7557H85.2869V102.756H85.5426V94.7557ZM81.6211 97.1551C81.461 97.5217 81.216 97.909 80.8423 98.3155L86.7316 103.73C87.6533 102.727 88.4083 101.603 88.9527 100.356L81.6211 97.1551ZM80.8423 98.3155C80.6082 98.5702 80.2654 98.8332 79.7328 99.0685L82.9661 106.386C84.388 105.758 85.6702 104.884 86.7316 103.73L80.8423 98.3155ZM79.7169 99.0756C79.3745 99.2286 78.8132 99.375 77.9233 99.375V107.375C79.6698 107.375 81.3925 107.09 82.982 106.379L79.7169 99.0756ZM80.821 100.881C82.6333 100.881 84.3994 100.351 85.8986 99.1616L80.9253 92.8953C80.9269 92.894 80.9348 92.8881 80.9479 92.881C80.961 92.874 80.9719 92.8697 80.9774 92.8679C80.9825 92.8662 80.9756 92.8691 80.9526 92.8726C80.9292 92.8761 80.8865 92.8807 80.821 92.8807V100.881ZM85.9287 99.1374C87.3106 98.0187 88.234 96.5558 88.8173 94.9775L81.3134 92.2043C81.1239 92.7169 80.945 92.879 80.8951 92.9194L85.9287 99.1374ZM88.8173 94.9775C89.4046 93.3883 89.6449 91.6717 89.6449 89.9091H81.6449C81.6449 90.9646 81.4988 91.7026 81.3134 92.2043L88.8173 94.9775ZM89.6449 89.9091C89.6449 88.134 89.4075 86.4031 88.8123 84.8102L81.3183 87.6102C81.4959 88.0856 81.6449 88.8205 81.6449 89.9091H89.6449ZM88.8257 84.8466C88.243 83.2397 87.2903 81.7555 85.8436 80.6478L80.9803 86.9999C80.9881 87.0059 81.1377 87.1126 81.305 87.5739L88.8257 84.8466ZM85.8677 80.6665C84.3688 79.5007 82.6138 78.9886 80.821 78.9886V86.9886C80.9573 86.9886 81.0073 87.0069 81 87.0045C80.9977 87.0038 80.9891 87.0007 80.9775 86.9945C80.9659 86.9884 80.9583 86.9829 80.9562 86.9813L85.8677 80.6665ZM80.821 78.9886C79.0091 78.9886 77.2247 79.5051 75.7094 80.7078L80.6827 86.9741C80.6769 86.9786 80.6661 86.9862 80.6517 86.994C80.6373 87.0017 80.627 87.0054 80.6244 87.0062C80.6169 87.0086 80.6721 86.9886 80.821 86.9886V78.9886ZM75.7094 80.7078C74.3049 81.8224 73.3751 83.2927 72.7993 84.8807L80.32 87.608C80.4942 87.1277 80.6553 86.9958 80.6827 86.9741L75.7094 80.7078ZM72.7862 84.9174C72.2367 86.4798 72.0142 88.1706 72.0142 89.9091H80.0142C80.0142 88.8294 80.1553 88.077 80.3331 87.5713L72.7862 84.9174ZM72.0142 89.9091C72.0142 91.6604 72.2458 93.364 72.8116 94.9414L80.3418 92.2404C80.1577 91.727 80.0142 90.9759 80.0142 89.9091H72.0142ZM72.8116 94.9414C73.3773 96.5186 74.2832 97.9892 75.6549 99.1176L80.7371 92.9393C80.6998 92.9085 80.5261 92.7541 80.3418 92.2404L72.8116 94.9414ZM75.7094 99.1616C77.2247 100.364 79.0091 100.881 80.821 100.881V92.8807C80.6721 92.8807 80.6169 92.8607 80.6244 92.8631C80.627 92.8639 80.6373 92.8677 80.6517 92.8754C80.6661 92.8831 80.6769 92.8907 80.6827 92.8953L75.7094 99.1616ZM104.876 112.324L103.42 116.049L103.42 116.049L104.876 112.324ZM100.7 109.477L97.6369 112.049L97.6369 112.049L100.7 109.477ZM98.8764 105.386L98.6522 101.393L94.3366 101.635L94.912 105.919L98.8764 105.386ZM106.768 104.943L110.624 103.877L109.764 100.769L106.544 100.949L106.768 104.943ZM107.587 106.341L104.758 109.169L104.778 109.189L104.798 109.209L107.587 106.341ZM109.172 107.261L107.907 111.056L107.917 111.059L107.927 111.063L109.172 107.261ZM114.95 106.562L112.595 103.329L112.573 103.346L112.55 103.362L114.95 106.562ZM116.331 98.4318H120.331V94.4318H116.331V98.4318ZM116.041 98.4318V94.4318H113.354L112.338 96.9193L116.041 98.4318ZM114.541 100.597L117.295 103.498L117.295 103.498L114.541 100.597ZM112.036 102.097L110.669 98.3374L110.662 98.3399L110.655 98.3425L112.036 102.097ZM103.376 101.312L101.4 104.79L101.415 104.798L101.43 104.807L103.376 101.312ZM99.5753 97.1534L95.9976 98.9423L96.0041 98.9552L96.0106 98.9681L99.5753 97.1534ZM99.6264 82.3239L103.212 84.0962L103.216 84.0881L99.6264 82.3239ZM103.462 77.9091L101.404 74.4791L101.393 74.4857L103.462 77.9091ZM112.121 77.1932L110.365 80.7875L110.39 80.7997L110.416 80.8115L112.121 77.1932ZM114.558 79L111.528 81.6108L111.528 81.6108L114.558 79ZM116.007 81.3011L112.312 82.8321L113.335 85.3011H116.007V81.3011ZM116.246 81.3011V85.3011H120.246V81.3011H116.246ZM116.246 76.8182V72.8182H112.246V76.8182H116.246ZM124.547 76.8182H128.547V72.8182H124.547V76.8182ZM118.206 112.17L116.746 108.446L116.737 108.45L116.728 108.454L118.206 112.17ZM115.768 93.4716L119.5 94.9132L119.5 94.9132L115.768 93.4716ZM115.768 86.2102L112.008 87.5739L112.017 87.5989L112.027 87.6238L115.768 86.2102ZM114.115 83.8239L111.659 86.9813L111.671 86.9906L111.683 86.9999L114.115 83.8239ZM107.263 86.2443L103.502 84.8807L103.498 84.8925L103.494 84.9043L107.263 86.2443ZM108.899 95.7727L106.483 98.9603L106.495 98.9696L106.507 98.9788L108.899 95.7727ZM111.268 109.364C109.133 109.364 107.523 109.064 106.333 108.599L103.42 116.049C105.775 116.97 108.427 117.364 111.268 117.364V109.364ZM106.333 108.599C105.054 108.098 104.263 107.499 103.764 106.905L97.6369 112.049C99.1606 113.864 101.154 115.163 103.42 116.049L106.333 108.599ZM103.764 106.905C103.228 106.267 102.942 105.606 102.841 104.854L94.912 105.919C95.22 108.212 96.1502 110.279 97.6369 112.049L103.764 106.905ZM99.1007 109.38L106.993 108.937L106.544 100.949L98.6522 101.393L99.1007 109.38ZM102.913 106.01C103.248 107.22 103.879 108.291 104.758 109.169L110.415 103.512C110.448 103.545 110.493 103.599 110.536 103.672C110.579 103.747 110.608 103.819 110.624 103.877L102.913 106.01ZM104.798 109.209C105.716 110.101 106.799 110.687 107.907 111.056L110.437 103.467C110.342 103.435 110.301 103.412 110.298 103.41C110.297 103.409 110.305 103.414 110.319 103.424C110.333 103.435 110.353 103.451 110.375 103.473L104.798 109.209ZM107.927 111.063C109.082 111.441 110.292 111.585 111.49 111.585V103.585C110.915 103.585 110.58 103.514 110.417 103.46L107.927 111.063ZM111.49 111.585C113.55 111.585 115.602 111.074 117.35 109.763L112.55 103.362C112.48 103.415 112.225 103.585 111.49 103.585V111.585ZM117.305 109.796C119.686 108.062 120.331 105.355 120.331 103.034H112.331C112.331 103.275 112.314 103.448 112.296 103.565C112.277 103.681 112.258 103.726 112.261 103.72C112.264 103.711 112.289 103.652 112.351 103.57C112.415 103.484 112.498 103.4 112.595 103.329L117.305 109.796ZM120.331 103.034V98.4318H112.331V103.034H120.331ZM116.331 94.4318H116.041V102.432H116.331V94.4318ZM112.338 96.9193C112.236 97.1697 112.072 97.4253 111.787 97.6954L117.295 103.498C118.351 102.495 119.187 101.308 119.744 99.9443L112.338 96.9193ZM111.787 97.6954C111.571 97.9006 111.23 98.1333 110.669 98.3374L113.402 105.856C114.841 105.333 116.17 104.565 117.295 103.498L111.787 97.6954ZM110.655 98.3425C110.193 98.5122 109.539 98.642 108.626 98.642V106.642C110.282 106.642 111.901 106.408 113.416 105.851L110.655 98.3425ZM108.626 98.642C107.365 98.642 106.29 98.3567 105.323 97.8182L101.43 104.807C103.645 106.041 106.07 106.642 108.626 106.642V98.642ZM105.353 97.8349C104.557 97.3823 103.797 96.6289 103.14 95.3387L96.0106 98.9681C97.2629 101.428 99.0372 103.447 101.4 104.79L105.353 97.8349ZM103.153 95.3646C102.577 94.2124 102.161 92.4566 102.161 89.875H94.1605C94.1605 93.2252 94.6873 96.3217 95.9976 98.9423L103.153 95.3646ZM102.161 89.875C102.161 87.2094 102.592 85.3519 103.212 84.0962L96.0405 80.5515C94.7066 83.2503 94.1605 86.427 94.1605 89.875H102.161ZM103.216 84.0881C103.924 82.6474 104.728 81.8177 105.53 81.3325L101.393 74.4857C99.0366 75.9096 97.283 78.0231 96.0365 80.5597L103.216 84.0881ZM105.52 81.3391C106.498 80.752 107.498 80.4773 108.592 80.4773V72.4773C106.027 72.4773 103.607 73.1571 101.404 74.4791L105.52 81.3391ZM108.592 80.4773C109.515 80.4773 110.06 80.6381 110.365 80.7875L113.876 73.5989C112.227 72.7937 110.419 72.4773 108.592 72.4773V80.4773ZM110.416 80.8115C110.958 81.0673 111.3 81.346 111.528 81.6108L117.589 76.3892C116.544 75.1768 115.261 74.2509 113.826 73.5749L110.416 80.8115ZM111.528 81.6108C111.923 82.0692 112.165 82.4779 112.312 82.8321L119.703 79.7702C119.19 78.5335 118.466 77.4081 117.589 76.3892L111.528 81.6108ZM116.007 85.3011H116.246V77.3011H116.007V85.3011ZM120.246 81.3011V76.8182H112.246V81.3011H120.246ZM116.246 80.8182H124.547V72.8182H116.246V80.8182ZM120.547 76.8182V103.102H128.547V76.8182H120.547ZM120.547 103.102C120.547 104.622 120.177 105.625 119.648 106.349L126.105 111.072C127.803 108.75 128.547 106.014 128.547 103.102H120.547ZM119.648 106.349C119.042 107.177 118.14 107.9 116.746 108.446L119.666 115.894C122.272 114.873 124.483 113.289 126.105 111.072L119.648 106.349ZM116.728 108.454C115.289 109.026 113.495 109.364 111.268 109.364V117.364C114.292 117.364 117.123 116.906 119.684 115.887L116.728 108.454ZM111.524 100.574C113.278 100.574 115.01 100.095 116.507 98.9788L111.723 92.5666C111.726 92.5645 111.733 92.5601 111.741 92.5558C111.749 92.5516 111.753 92.5507 111.749 92.5521C111.742 92.5542 111.676 92.5739 111.524 92.5739V100.574ZM116.507 98.9788C117.938 97.9113 118.897 96.4738 119.5 94.9132L112.037 92.03C111.868 92.4694 111.724 92.5659 111.723 92.5666L116.507 98.9788ZM119.5 94.9132C120.109 93.3371 120.348 91.6236 120.348 89.875H112.348C112.348 90.9219 112.201 91.6061 112.037 92.03L119.5 94.9132ZM120.348 89.875C120.348 88.1088 120.11 86.3838 119.51 84.7966L112.027 87.6238C112.2 88.0821 112.348 88.8003 112.348 89.875H120.348ZM119.529 84.8466C118.946 83.2397 117.993 81.7555 116.547 80.6478L111.683 86.9999C111.691 87.0059 111.841 87.1126 112.008 87.5739L119.529 84.8466ZM116.571 80.6665C115.072 79.5007 113.317 78.9886 111.524 78.9886V86.9886C111.66 86.9886 111.71 87.0069 111.703 87.0045C111.701 87.0038 111.692 87.0007 111.681 86.9945C111.669 86.9884 111.661 86.9829 111.659 86.9813L116.571 80.6665ZM111.524 78.9886C109.712 78.9886 107.928 79.5051 106.413 80.7078L111.386 86.9741C111.38 86.9786 111.369 86.9862 111.355 86.994C111.34 87.0017 111.33 87.0054 111.328 87.0062C111.32 87.0086 111.375 86.9886 111.524 86.9886V78.9886ZM106.413 80.7078C105.008 81.8224 104.078 83.2927 103.502 84.8807L111.023 87.608C111.197 87.1277 111.358 86.9958 111.386 86.9741L106.413 80.7078ZM103.494 84.9043C102.94 86.4609 102.717 88.1454 102.717 89.875H110.717C110.717 88.8091 110.858 88.0732 111.032 87.5844L103.494 84.9043ZM102.717 89.875C102.717 91.6122 102.948 93.3122 103.535 94.8761L111.025 92.0671C110.862 91.631 110.717 90.9333 110.717 89.875H102.717ZM103.535 94.8761C104.119 96.4358 105.061 97.8823 106.483 98.9603L111.316 92.5851C111.312 92.5822 111.284 92.5615 111.237 92.4949C111.188 92.4245 111.11 92.2921 111.025 92.0671L103.535 94.8761ZM106.507 98.9788C108.019 100.107 109.769 100.574 111.524 100.574V92.5739C111.352 92.5739 111.273 92.5519 111.26 92.5478C111.253 92.5455 111.255 92.5459 111.265 92.5506C111.275 92.5555 111.284 92.5614 111.291 92.5666L106.507 98.9788ZM135.009 101.875L133.076 105.377L133.088 105.384L133.1 105.39L135.009 101.875ZM130.44 97.2216L126.895 99.0739L126.901 99.0858L126.908 99.0977L130.44 97.2216ZM130.457 82.9205L133.994 84.7884L133.999 84.7802L130.457 82.9205ZM134.974 78.1818L136.979 81.6435L136.986 81.6391L136.994 81.6347L134.974 78.1818ZM146.957 77.3466L148.362 73.6013L148.362 73.6013L146.957 77.3466ZM153.588 84.1307L149.842 85.5324L149.845 85.5408L153.588 84.1307ZM154.526 91.9205V95.9205H158.526V91.9205H154.526ZM131.77 91.9205H127.77V95.9205H131.77V91.9205ZM131.77 87.0795V83.0795H127.77V87.0795H131.77ZM146.77 87.0795V91.0795H150.821L150.77 87.0283L146.77 87.0795ZM144.452 83.0909L142.485 86.5742L142.518 86.5929L142.552 86.611L144.452 83.0909ZM139.509 83.125L141.447 86.6242L141.467 86.6128L141.487 86.6013L139.509 83.125ZM137.753 84.8125L141.163 86.9027L141.171 86.8906L141.178 86.8785L137.753 84.8125ZM137.071 87.2159L133.072 87.1147L133.071 87.1653V87.2159H137.071ZM137.702 94.9545L134.154 96.8031L134.16 96.8135L134.165 96.8238L137.702 94.9545ZM139.491 96.8125L137.501 100.282L137.501 100.282L139.491 96.8125ZM144.264 97.1705L145.551 100.958L145.551 100.958L144.264 97.1705ZM145.815 96.267L148.525 99.2092L148.525 99.2092L145.815 96.267ZM146.787 94.8011L146.903 90.8028L144.039 90.7199L143.039 93.4047L146.787 94.8011ZM154.44 95.0227L158.373 95.752L159.225 91.1596L154.556 91.0244L154.44 95.0227ZM152.344 99.5057L149.293 96.9183L149.291 96.9207L152.344 99.5057ZM148.134 102.455L149.615 106.17L149.625 106.166L149.636 106.162L148.134 102.455ZM142.099 99.4943C139.888 99.4943 138.208 99.0607 136.917 98.3596L133.1 105.39C135.786 106.848 138.833 107.494 142.099 107.494V99.4943ZM136.941 98.3727C135.65 97.6603 134.68 96.6771 133.973 95.3455L126.908 99.0977C128.337 101.789 130.413 103.908 133.076 105.377L136.941 98.3727ZM133.986 95.3693C133.286 94.0308 132.855 92.2905 132.855 90.0114H124.855C124.855 93.3004 125.481 96.3669 126.895 99.0739L133.986 95.3693ZM132.855 90.0114C132.855 87.8393 133.281 86.139 133.994 84.7884L126.92 81.0526C125.497 83.7474 124.855 86.7743 124.855 90.0114H132.855ZM133.999 84.7802C134.725 83.398 135.705 82.3811 136.979 81.6435L132.97 74.7201C130.358 76.2325 128.327 78.3747 126.916 81.0607L133.999 84.7802ZM136.994 81.6347C138.226 80.9139 139.794 80.4773 141.844 80.4773V72.4773C138.62 72.4773 135.609 73.1771 132.955 74.7289L136.994 81.6347ZM141.844 80.4773C143.289 80.4773 144.511 80.7011 145.553 81.0919L148.362 73.6013C146.313 72.833 144.126 72.4773 141.844 72.4773V80.4773ZM145.553 81.0919C146.575 81.4753 147.415 82.0222 148.12 82.7346L153.806 77.1063C152.261 75.5459 150.43 74.377 148.362 73.6013L145.553 81.0919ZM148.12 82.7346C148.804 83.4252 149.392 84.33 149.842 85.5324L157.334 82.729C156.534 80.5905 155.372 78.6884 153.806 77.1063L148.12 82.7346ZM149.845 85.5408C150.268 86.6651 150.526 88.076 150.526 89.8409H158.526C158.526 87.3104 158.158 84.9145 157.331 82.7206L149.845 85.5408ZM150.526 89.8409V91.9205H158.526V89.8409H150.526ZM154.526 87.9205H131.77V95.9205H154.526V87.9205ZM135.77 91.9205V87.0795H127.77V91.9205H135.77ZM131.77 91.0795H146.77V83.0795H131.77V91.0795ZM150.77 87.0283C150.75 85.5168 150.383 84.0308 149.584 82.6772L142.694 86.7432C142.714 86.776 142.767 86.8696 142.77 87.1308L150.77 87.0283ZM149.584 82.6772C148.801 81.3499 147.701 80.2991 146.351 79.5708L142.552 86.611C142.634 86.6554 142.66 86.6842 142.694 86.7432L149.584 82.6772ZM146.418 79.6076C145.035 78.8268 143.527 78.4943 142.014 78.4943V86.4943C142.342 86.4943 142.459 86.5596 142.485 86.5742L146.418 79.6076ZM142.014 78.4943C140.457 78.4943 138.928 78.8526 137.53 79.6487L141.487 86.6013C141.566 86.5565 141.708 86.4943 142.014 86.4943V78.4943ZM137.571 79.6258C136.226 80.3707 135.125 81.4247 134.328 82.7465L141.178 86.8785C141.244 86.7685 141.314 86.6975 141.447 86.6242L137.571 79.6258ZM134.342 82.7223C133.512 84.078 133.111 85.5766 133.072 87.1147L141.07 87.3171C141.076 87.0597 141.131 86.9561 141.163 86.9027L134.342 82.7223ZM133.071 87.2159V92.142H141.071V87.2159H133.071ZM133.071 92.142C133.071 93.7419 133.389 95.3338 134.154 96.8031L141.249 93.106C141.174 92.9616 141.071 92.6786 141.071 92.142H133.071ZM134.165 96.8238C134.936 98.2812 136.065 99.4586 137.501 100.282L141.482 93.3427C141.372 93.28 141.309 93.2188 141.238 93.0853L134.165 96.8238ZM137.501 100.282C138.99 101.136 140.626 101.477 142.253 101.477V93.4773C141.744 93.4773 141.538 93.3752 141.482 93.3427L137.501 100.282ZM142.253 101.477C143.36 101.477 144.473 101.324 145.551 100.958L142.978 93.3829C142.851 93.4262 142.623 93.4773 142.253 93.4773V101.477ZM145.551 100.958C146.636 100.589 147.65 100.016 148.525 99.2092L143.105 93.3249C143.105 93.325 143.105 93.3255 143.103 93.3265C143.102 93.3276 143.098 93.3304 143.091 93.3347C143.077 93.3428 143.042 93.3611 142.978 93.3829L145.551 100.958ZM148.525 99.2092C149.445 98.3623 150.112 97.3344 150.535 96.1976L143.039 93.4047C143.031 93.4241 143.032 93.4161 143.048 93.3924C143.064 93.368 143.085 93.3438 143.105 93.3249L148.525 99.2092ZM146.671 98.7995L154.325 99.0211L154.556 91.0244L146.903 90.8028L146.671 98.7995ZM150.507 94.2934C150.31 95.3562 149.901 96.2021 149.293 96.9183L155.394 102.093C156.946 100.264 157.934 98.121 158.373 95.752L150.507 94.2934ZM149.291 96.9207C148.695 97.6248 147.852 98.2528 146.631 98.7474L149.636 106.162C151.893 105.247 153.856 103.909 155.396 102.091L149.291 96.9207ZM146.652 98.739C145.476 99.2078 143.985 99.4943 142.099 99.4943V107.494C144.782 107.494 147.314 107.088 149.615 106.17L146.652 98.739ZM177.652 78.5568L173.668 78.919L173.999 82.5568H177.652V78.5568ZM176.135 75.642L173.646 78.7733L173.668 78.7909L173.69 78.8081L176.135 75.642ZM169.607 75.0114L168.151 71.2855L168.151 71.2855L169.607 75.0114ZM167.97 76.1875L171.179 78.5755L171.192 78.5579L171.205 78.5402L167.97 76.1875ZM167.408 77.875L171.404 78.0488L171.406 77.9976L171.407 77.9464L167.408 77.875ZM167.714 79.2557L164.242 81.2402L164.263 81.2772L164.285 81.3137L167.714 79.2557ZM168.737 80.3125L166.46 83.6013L166.508 83.6345L166.557 83.6663L168.737 80.3125ZM170.374 81.0966L171.719 77.3296L171.719 77.3296L170.374 81.0966ZM172.521 81.6932L173.408 77.7926L173.384 77.7872L173.359 77.782L172.521 81.6932ZM175.521 82.375L174.635 86.2755L174.654 86.2798L174.673 86.2839L175.521 82.375ZM180.089 83.875L178.376 87.4893L178.388 87.495L180.089 83.875ZM183.43 86.108L180.657 88.9906L180.666 88.9993L180.675 89.008L183.43 86.108ZM185.493 89.0909L181.797 90.6214L181.797 90.6214L185.493 89.0909ZM186.209 92.875L190.209 92.8956L190.209 92.869L190.209 92.8425L186.209 92.875ZM184.538 98.5511L181.258 96.262L181.258 96.262L184.538 98.5511ZM179.783 102.182L178.276 98.4764L178.269 98.4793L179.783 102.182ZM164.697 102.131L166.193 98.4208L166.193 98.4208L164.697 102.131ZM157.777 91.375V87.375H153.727L153.777 91.425L157.777 91.375ZM165.857 91.375L169.849 91.133L169.621 87.375H165.857V91.375ZM166.76 94.1875L163.502 96.5078L163.502 96.5078L166.76 94.1875ZM168.959 95.892L167.427 99.587L167.435 99.5903L167.443 99.5935L168.959 95.892ZM175.129 96.0114L173.707 92.2726L173.699 92.2759L173.69 92.2794L175.129 96.0114ZM176.987 94.733L173.851 92.2501L173.851 92.2501L176.987 94.733ZM177.652 92.858L181.651 92.9225L181.653 92.8557L181.651 92.789L177.652 92.858ZM177.038 91.1705L173.965 93.7312L173.981 93.7494L173.996 93.7675L177.038 91.1705ZM175.197 89.9432L173.616 93.6171L173.646 93.6303L173.677 93.6429L175.197 89.9432ZM172.061 88.9716L171.151 92.8667L171.157 92.868L172.061 88.9716ZM168.413 88.1193L169.323 84.2242L169.315 84.2224L169.307 84.2205L168.413 88.1193ZM161.271 84.7614L158.603 87.7413L158.608 87.7462L158.614 87.751L161.271 84.7614ZM158.68 78.4545L162.68 78.4717L162.68 78.4526L162.68 78.4335L158.68 78.4545ZM160.419 72.7784L157.173 70.4406L157.173 70.4406L160.419 72.7784ZM165.277 68.9773L166.887 72.6391L166.887 72.6391L165.277 68.9773ZM179.391 68.9943L177.71 72.6243L177.723 72.6301L177.735 72.6358L179.391 68.9943ZM184.044 72.8295L187.369 70.6055L187.369 70.6055L184.044 72.8295ZM185.732 78.5568V82.5568H189.774L189.731 78.5149L185.732 78.5568ZM181.636 78.1947C181.433 75.9679 180.457 73.9257 178.58 72.476L173.69 78.8081C173.699 78.815 173.692 78.8103 173.676 78.7923C173.661 78.774 173.648 78.7539 173.639 78.7373C173.631 78.7214 173.633 78.7213 173.64 78.7457C173.647 78.771 173.66 78.8263 173.668 78.919L181.636 78.1947ZM178.624 72.5108C176.771 71.0377 174.487 70.5852 172.334 70.5852V78.5852C173.476 78.5852 173.726 78.8373 173.646 78.7733L178.624 72.5108ZM172.334 70.5852C170.928 70.5852 169.487 70.7638 168.151 71.2855L171.062 78.7372C171.181 78.6908 171.558 78.5852 172.334 78.5852V70.5852ZM168.151 71.2855C166.898 71.7751 165.653 72.5725 164.735 73.8348L171.205 78.5402C171.116 78.6632 171.03 78.7354 170.987 78.7665C170.948 78.7945 170.961 78.7766 171.062 78.7372L168.151 71.2855ZM164.761 73.7995C163.875 74.9901 163.434 76.3714 163.408 77.8036L171.407 77.9464C171.406 78.0044 171.395 78.1096 171.352 78.2408C171.307 78.3736 171.244 78.4884 171.179 78.5755L164.761 73.7995ZM163.411 77.7012C163.361 78.8685 163.589 80.0975 164.242 81.2402L171.187 77.2711C171.279 77.4309 171.339 77.5943 171.372 77.7445C171.405 77.8911 171.406 77.9983 171.404 78.0488L163.411 77.7012ZM164.285 81.3137C164.859 82.2718 165.625 83.0229 166.46 83.6013L171.014 77.0237C170.987 77.0048 170.995 77.0069 171.024 77.0365C171.053 77.0672 171.098 77.1205 171.144 77.1977L164.285 81.3137ZM166.557 83.6663C167.328 84.167 168.167 84.556 169.028 84.8636L171.719 77.3296C171.307 77.1826 171.056 77.0489 170.917 76.9587L166.557 83.6663ZM169.028 84.8636C169.86 85.1605 170.749 85.4042 171.683 85.6044L173.359 77.782C172.703 77.6412 172.16 77.4872 171.719 77.3296L169.028 84.8636ZM171.635 85.5937L174.635 86.2755L176.408 78.4745L173.408 77.7926L171.635 85.5937ZM174.673 86.2839C176.162 86.6072 177.385 87.0193 178.376 87.4893L181.803 80.2607C180.158 79.4807 178.335 78.8928 176.37 78.4661L174.673 86.2839ZM178.388 87.495C179.391 87.9668 180.125 88.4783 180.657 88.9906L186.204 83.2253C184.941 82.0104 183.447 81.0332 181.791 80.255L178.388 87.495ZM180.675 89.008C181.191 89.4977 181.552 90.0293 181.797 90.6214L189.189 87.5604C188.502 85.9025 187.488 84.4454 186.185 83.208L180.675 89.008ZM181.797 90.6214C182.04 91.2063 182.201 91.9487 182.209 92.9075L190.209 92.8425C190.194 91.0058 189.878 89.2255 189.189 87.5604L181.797 90.6214ZM182.209 92.8544C182.201 94.3685 181.831 95.4411 181.258 96.262L187.819 100.84C189.45 98.5021 190.194 95.7906 190.209 92.8956L182.209 92.8544ZM181.258 96.262C180.665 97.1124 179.745 97.8791 178.276 98.4764L181.289 105.887C183.957 104.803 186.207 103.149 187.819 100.84L181.258 96.262ZM178.269 98.4793C176.816 99.0733 174.876 99.4432 172.334 99.4432V107.443C175.609 107.443 178.636 106.972 181.296 105.884L178.269 98.4793ZM172.334 99.4432C169.803 99.4432 167.786 99.0631 166.193 98.4208L163.202 105.841C165.949 106.948 169.023 107.443 172.334 107.443V99.4432ZM166.193 98.4208C164.695 97.8168 163.669 96.9691 162.95 95.9038L156.32 100.38C158.01 102.883 160.359 104.695 163.202 105.841L166.193 98.4208ZM162.95 95.9038C162.286 94.9196 161.804 93.4793 161.777 91.325L153.777 91.425C153.819 94.7253 154.575 97.7963 156.32 100.38L162.95 95.9038ZM157.777 95.375H165.857V87.375H157.777V95.375ZM161.864 91.617C161.967 93.3219 162.445 95.0236 163.502 96.5078L170.018 91.8672C170.007 91.8514 169.882 91.6781 169.849 91.133L161.864 91.617ZM163.502 96.5078C164.512 97.9266 165.871 98.9418 167.427 99.587L170.491 92.1971C170.183 92.0696 170.076 91.9484 170.018 91.8672L163.502 96.5078ZM167.443 99.5935C168.958 100.215 170.582 100.472 172.232 100.472V92.4716C171.404 92.4716 170.846 92.3423 170.475 92.1906L167.443 99.5935ZM172.232 100.472C173.706 100.472 175.189 100.275 176.569 99.7434L173.69 92.2794C173.478 92.3609 173.03 92.4716 172.232 92.4716V100.472ZM176.551 99.7501C177.871 99.2482 179.148 98.4483 180.123 97.2158L173.851 92.2501C173.902 92.1861 173.939 92.1612 173.931 92.1664C173.92 92.174 173.855 92.2163 173.707 92.2726L176.551 99.7501ZM180.123 97.2158C181.108 95.9715 181.626 94.4939 181.651 92.9225L173.653 92.7934C173.653 92.7393 173.664 92.6397 173.707 92.5185C173.75 92.3966 173.808 92.305 173.851 92.2501L180.123 97.2158ZM181.651 92.789C181.625 91.2776 181.129 89.8011 180.081 88.5734L173.996 93.7675C173.892 93.6453 173.796 93.4877 173.731 93.3087C173.667 93.1336 173.654 92.9957 173.653 92.9269L181.651 92.789ZM180.111 88.6097C179.153 87.4594 177.901 86.7295 176.718 86.2434L173.677 93.6429C173.898 93.7336 174.015 93.8034 174.061 93.8339C174.106 93.8637 174.054 93.8373 173.965 93.7312L180.111 88.6097ZM176.779 86.2692C175.667 85.7904 174.374 85.4021 172.966 85.0752L171.157 92.868C172.294 93.132 173.092 93.3915 173.616 93.6171L176.779 86.2692ZM172.971 85.0765L169.323 84.2242L167.503 92.0144L171.151 92.8667L172.971 85.0765ZM169.307 84.2205C166.73 83.6293 165.026 82.7468 163.929 81.7717L158.614 87.751C160.994 89.8668 164.052 91.2229 167.519 92.0181L169.307 84.2205ZM163.94 81.7814C163.172 81.0943 162.673 80.1468 162.68 78.4717L154.68 78.4374C154.665 82.0578 155.893 85.3147 158.603 87.7413L163.94 81.7814ZM162.68 78.4335C162.673 77.0507 163.028 75.9999 163.665 75.1162L157.173 70.4406C155.469 72.807 154.665 75.5402 154.68 78.4756L162.68 78.4335ZM163.665 75.1162C164.366 74.1421 165.387 73.2984 166.887 72.6391L163.667 65.3154C161.031 66.4743 158.813 68.1647 157.173 70.4406L163.665 75.1162ZM166.887 72.6391C168.368 71.9881 170.163 71.6136 172.351 71.6136V63.6136C169.243 63.6136 166.323 64.1483 163.667 65.3154L166.887 72.6391ZM172.351 71.6136C174.608 71.6136 176.357 71.9978 177.71 72.6243L181.071 65.3643C178.447 64.1499 175.503 63.6136 172.351 63.6136V71.6136ZM177.735 72.6358C179.134 73.2713 180.075 74.0901 180.719 75.0536L187.369 70.6055C185.809 68.2736 183.648 66.5355 181.046 65.3529L177.735 72.6358ZM180.719 75.0536C181.348 75.994 181.716 77.129 181.732 78.5987L189.731 78.5149C189.701 75.6437 188.944 72.9605 187.369 70.6055L180.719 75.0536ZM185.732 74.5568H177.652V82.5568H185.732V74.5568ZM190.47 103H186.47V107H190.47V103ZM190.47 76.8182V72.8182H186.47V76.8182H190.47ZM198.805 76.8182H202.805V72.8182H198.805V76.8182ZM198.805 103V107H202.805V103H198.805ZM191.629 72.608L188.901 75.5335L188.912 75.5434L188.923 75.5533L191.629 72.608ZM191.629 66.983L194.336 69.9283L194.346 69.9184L194.357 69.9085L191.629 66.983ZM197.663 66.983L194.916 69.8899L194.936 69.9092L194.957 69.9283L197.663 66.983ZM197.663 72.608L200.39 75.5348L200.391 75.5335L197.663 72.608ZM194.47 103V76.8182H186.47V103H194.47ZM190.47 80.8182H198.805V72.8182H190.47V80.8182ZM194.805 76.8182V103H202.805V76.8182H194.805ZM198.805 99H190.47V107H198.805V99ZM194.646 69.767C194.509 69.767 194.456 69.746 194.449 69.7433C194.443 69.7413 194.408 69.7291 194.336 69.6626L188.923 75.5533C190.522 77.0227 192.501 77.767 194.646 77.767V69.767ZM194.357 69.6824C194.318 69.6461 194.306 69.628 194.308 69.6311C194.311 69.6349 194.323 69.653 194.337 69.6839C194.351 69.715 194.36 69.7456 194.365 69.7699C194.37 69.7935 194.368 69.7984 194.368 69.7784H186.368C186.368 72.0428 187.288 74.0296 188.901 75.5335L194.357 69.6824ZM194.368 69.7784C194.368 69.7639 194.369 69.7747 194.363 69.8041C194.357 69.8343 194.346 69.8704 194.329 69.9065C194.313 69.9424 194.298 69.9645 194.293 69.9717C194.288 69.978 194.298 69.9625 194.336 69.9283L188.923 64.0376C187.301 65.5278 186.368 67.5101 186.368 69.7784H194.368ZM194.357 69.9085C194.397 69.8709 194.425 69.8514 194.44 69.8422C194.454 69.8333 194.462 69.8296 194.467 69.8277C194.469 69.8269 194.516 69.8068 194.646 69.8068V61.8068C192.484 61.8068 190.498 62.5692 188.901 64.0574L194.357 69.9085ZM194.646 69.8068C194.72 69.8068 194.768 69.8129 194.794 69.8176C194.82 69.8222 194.831 69.8266 194.834 69.8277C194.837 69.8287 194.841 69.8305 194.85 69.8362C194.859 69.8421 194.881 69.8575 194.916 69.8899L200.411 64.076C198.81 62.563 196.81 61.8068 194.646 61.8068V69.8068ZM194.957 69.9283C194.994 69.9625 195.005 69.978 195 69.9717C194.995 69.9645 194.98 69.9424 194.963 69.9065C194.947 69.8704 194.936 69.8343 194.93 69.8041C194.923 69.7747 194.925 69.7639 194.925 69.7784H202.925C202.925 67.5101 201.991 65.5278 200.37 64.0376L194.957 69.9283ZM194.925 69.7784C194.925 69.7984 194.923 69.7935 194.928 69.7699C194.933 69.7456 194.942 69.715 194.956 69.6839C194.97 69.653 194.982 69.6349 194.985 69.6311C194.987 69.628 194.974 69.6461 194.935 69.6824L200.391 75.5335C202.004 74.0296 202.925 72.0428 202.925 69.7784H194.925ZM194.937 69.6811C194.904 69.712 194.882 69.727 194.872 69.7331C194.863 69.739 194.857 69.7415 194.852 69.7433C194.85 69.7443 194.794 69.767 194.646 69.767V77.767C196.793 77.767 198.786 77.0289 200.39 75.5348L194.937 69.6811ZM204.111 103H200.111V107H204.111V103ZM204.111 76.8182V72.8182H200.111V76.8182H204.111ZM212.037 76.8182H216.037V72.8182H212.037V76.8182ZM212.037 81.625H208.037V85.625H212.037V81.625ZM212.327 81.625V85.625H215.184L216.11 82.9223L212.327 81.625ZM215.088 77.858L217.405 81.1187L217.405 81.1187L215.088 77.858ZM224.395 77.875L222.059 81.1222L222.059 81.1222L224.395 77.875ZM226.866 81.625L222.964 82.5017L223.665 85.625H226.866V81.625ZM227.139 81.625V85.625H230.076L230.956 82.8229L227.139 81.625ZM230.003 77.892L232.197 81.2366L232.206 81.2305L232.215 81.2243L230.003 77.892ZM241.065 78.8636L238.196 81.6508L238.201 81.6559L238.206 81.661L241.065 78.8636ZM243.384 103V107H247.384V103H243.384ZM235.048 103H231.048V107H235.048V103ZM234.043 84.3011L231.167 87.082L231.179 87.0939L231.191 87.1057L234.043 84.3011ZM228.724 84.3864L225.72 81.7459L225.717 81.7491L228.724 84.3864ZM227.753 103V107H231.753V103H227.753ZM219.741 103H215.741V107H219.741V103ZM218.753 84.3182L221.674 81.5856L221.674 81.5856L218.753 84.3182ZM214.219 83.7898L216.307 87.2012L216.332 87.1858L216.357 87.1701L214.219 83.7898ZM212.906 85.2557L209.329 83.4668L209.316 83.4926L209.303 83.5185L212.906 85.2557ZM212.446 103V107H216.446V103H212.446ZM208.111 103V76.8182H200.111V103H208.111ZM204.111 80.8182H212.037V72.8182H204.111V80.8182ZM208.037 76.8182V81.625H216.037V76.8182H208.037ZM212.037 85.625H212.327V77.625H212.037V85.625ZM216.11 82.9223C216.401 82.0742 216.833 81.5251 217.405 81.1187L212.771 74.5972C210.752 76.0317 209.343 77.9939 208.543 80.3277L216.11 82.9223ZM217.405 81.1187C217.937 80.7403 218.647 80.4773 219.724 80.4773V72.4773C217.211 72.4773 214.83 73.1347 212.771 74.5972L217.405 81.1187ZM219.724 80.4773C220.826 80.4773 221.537 80.7463 222.059 81.1222L226.731 74.6278C224.662 73.1401 222.259 72.4773 219.724 72.4773V80.4773ZM222.059 81.1222C222.553 81.4778 222.824 81.8812 222.964 82.5017L230.769 80.7483C230.204 78.2324 228.827 76.1359 226.731 74.6278L222.059 81.1222ZM226.866 85.625H227.139V77.625H226.866V85.625ZM230.956 82.8229C231.156 82.186 231.514 81.6843 232.197 81.2366L227.809 74.5475C225.65 75.9634 224.1 77.9504 223.323 80.4271L230.956 82.8229ZM232.215 81.2243C232.896 80.7728 233.779 80.4773 235.031 80.4773V72.4773C232.42 72.4773 229.951 73.125 227.79 74.5597L232.215 81.2243ZM235.031 80.4773C236.566 80.4773 237.496 80.9295 238.196 81.6508L243.934 76.0765C241.544 73.616 238.451 72.4773 235.031 72.4773V80.4773ZM238.206 81.661C238.848 82.3173 239.384 83.3846 239.384 85.375H247.384C247.384 81.8427 246.373 78.569 243.924 76.0662L238.206 81.661ZM239.384 85.375V103H247.384V85.375H239.384ZM243.384 99H235.048V107H243.384V99ZM239.048 103V87.2841H231.048V103H239.048ZM239.048 87.2841C239.048 85.3209 238.537 83.1664 236.895 81.4966L231.191 87.1057C231.132 87.046 231.086 86.9843 231.053 86.9291C231.02 86.8749 231.008 86.8399 231.006 86.8361C231.006 86.8348 231.048 86.963 231.048 87.2841H239.048ZM236.918 81.5202C235.409 79.96 233.458 79.2614 231.435 79.2614V87.2614C231.533 87.2614 231.505 87.2761 231.406 87.2369C231.36 87.2183 231.311 87.1927 231.264 87.1612C231.218 87.1299 231.186 87.1008 231.167 87.082L236.918 81.5202ZM231.435 79.2614C229.327 79.2614 227.256 79.9982 225.72 81.7459L231.729 87.0268C231.702 87.0573 231.66 87.0984 231.602 87.1403C231.543 87.1824 231.484 87.2146 231.43 87.237C231.319 87.2831 231.297 87.2614 231.435 87.2614V79.2614ZM225.717 81.7491C224.27 83.3988 223.753 85.4211 223.753 87.3693H231.753C231.753 87.0854 231.79 86.9527 231.799 86.9249C231.803 86.9121 231.801 86.9211 231.788 86.9444C231.775 86.9683 231.756 86.9963 231.732 87.0237L225.717 81.7491ZM223.753 87.3693V103H231.753V87.3693H223.753ZM227.753 99H219.741V107H227.753V99ZM223.741 103V87.1989H215.741V103H223.741ZM223.741 87.1989C223.741 85.2436 223.194 83.2104 221.674 81.5856L215.832 87.0508C215.799 87.0155 215.769 86.9761 215.746 86.937C215.723 86.8984 215.713 86.8717 215.711 86.8652C215.707 86.8541 215.741 86.9479 215.741 87.1989H223.741ZM221.674 81.5856C220.164 79.972 218.186 79.2614 216.145 79.2614V87.2614C216.247 87.2614 216.213 87.2769 216.104 87.2328C216.052 87.2116 215.997 87.1824 215.944 87.1459C215.892 87.1097 215.854 87.075 215.832 87.0508L221.674 81.5856ZM216.145 79.2614C214.742 79.2614 213.342 79.611 212.08 80.4095L216.357 87.1701C216.298 87.2078 216.233 87.2354 216.176 87.2509C216.122 87.2657 216.106 87.2614 216.145 87.2614V79.2614ZM212.13 80.3784C210.878 81.145 209.95 82.2233 209.329 83.4668L216.484 87.0445C216.497 87.018 216.491 87.0378 216.453 87.0801C216.414 87.1242 216.362 87.1676 216.307 87.2012L212.13 80.3784ZM209.303 83.5185C208.683 84.8037 208.446 86.1719 208.446 87.5057H216.446C216.446 87.1122 216.515 86.9803 216.509 86.9929L209.303 83.5185ZM208.446 87.5057V103H216.446V87.5057H208.446ZM212.446 99H204.111V107H212.446V99Z" fill="black" mask="url(#path-2-outside-1_14_68)"/>
</svg>
